<svg width="112" height="106" viewBox="0 0 112 106" fill="none" xmlns="http://www.w3.org/2000/svg">
<mask id="mask0_13868_4307" style="mask-type:luminance" maskUnits="userSpaceOnUse" x="0" y="0" width="112" height="106">
<path d="M0.422073 2.20771e-05L0 105.143L110.916 105.588L111.338 0.445269L0.422073 2.20771e-05Z" fill="white"/>
</mask>
<g mask="url(#mask0_13868_4307)">
<path d="M20.2536 85.8929V80.1851C20.2863 78.0263 18.9125 76.5871 16.7047 76.5544C15.5435 76.5381 14.3332 76.8815 13.4991 78.1571C12.8777 77.1432 11.8964 76.538 10.4899 76.5217C9.52497 76.5217 8.57639 76.7997 7.82408 77.8628V76.7343H5.84519L5.8125 85.8438H7.80776L7.82408 80.8066C7.82408 79.2202 8.70722 78.3861 10.0647 78.4025C11.373 78.4025 12.0436 79.2693 12.0436 80.8066V85.8765H14.0225V80.823C14.0552 79.2366 14.9711 78.4188 16.2794 78.4188C17.6369 78.4188 18.2747 79.2856 18.2747 80.823V85.8929H20.2536ZM49.8718 76.9142H46.6335V74.1339H44.6383V76.8815H42.7902V78.6805H44.6383L44.6219 82.8346C44.6219 84.9443 45.4233 86.2036 47.762 86.22C48.6124 86.22 49.6101 85.9583 50.2479 85.5331L49.6755 83.8322C49.0867 84.1756 48.4326 84.3392 47.9256 84.3392C46.9443 84.3392 46.6172 83.7177 46.6172 82.8019V78.6969H49.8718V76.8815V76.9142ZM66.766 76.7507C65.6212 76.7507 64.8852 77.274 64.3619 78.0754V76.9633H62.3993L62.3666 86.0728H64.3455L64.3619 80.9701C64.3619 79.4655 65.0161 78.6314 66.3081 78.6314C66.7006 78.6314 67.1258 78.6969 67.5511 78.8604L68.1725 76.996C67.731 76.8161 67.1585 76.7507 66.766 76.7343M41.2365 77.5847C40.288 76.9469 38.9796 76.6198 37.524 76.6198C35.218 76.6198 33.7297 77.7156 33.7297 79.5146C33.7297 81.0029 34.8255 81.9187 36.8535 82.2131L37.7857 82.3439C38.8651 82.5075 39.3884 82.7855 39.3721 83.3088C39.3721 84.0121 38.6525 84.4046 37.2951 84.4046C35.9213 84.4046 34.94 83.963 34.2695 83.4397L33.3372 84.977C34.4166 85.7784 35.7904 86.1709 37.2787 86.1709C39.9118 86.1709 41.4328 84.9443 41.4491 83.2107C41.4491 81.608 40.2552 80.7739 38.2763 80.4795L37.3441 80.3487C36.4937 80.2342 35.8068 80.0543 35.8068 79.4492C35.8068 78.7786 36.461 78.3861 37.5404 78.3861C38.7016 78.3861 39.83 78.8277 40.3697 79.1711L41.2365 77.5847ZM94.2908 76.8488C93.146 76.8488 92.41 77.3721 91.8867 78.1735V77.0614H89.9241L89.8914 86.1709H91.8703L91.8867 81.0683C91.8867 79.5636 92.5409 78.7296 93.8329 78.7296C94.2254 78.7296 94.6506 78.795 95.0759 78.9585L95.6972 77.0941C95.2557 76.9142 94.6833 76.8488 94.2908 76.8324M14.2678 97.6518H11.1441L11.1114 104.93H9.11611L9.1488 97.6191H7.31709V95.8037H9.1488V94.2664C9.1488 92.4511 10.0811 90.9955 12.2071 91.0119C13.2702 91.0119 14.0716 91.3062 14.7421 91.6987L14.0389 93.3669C13.5809 93.0889 12.9431 92.8763 12.338 92.8763C11.5693 92.8763 11.1441 93.3833 11.1441 94.2828V95.8201H14.2515V97.6355L14.2678 97.6518ZM24.7347 100.448C24.7347 97.7172 22.6577 95.6566 19.8447 95.6402C17.0317 95.6402 14.9383 97.6845 14.9383 100.416C14.9383 103.147 16.999 105.208 19.812 105.224C22.625 105.224 24.7184 103.18 24.7347 100.448ZM16.9827 100.416C16.9827 98.6985 18.2256 97.5046 19.8447 97.5046C21.4638 97.5046 22.7067 98.7149 22.6904 100.432C22.6904 102.149 21.4475 103.343 19.812 103.343C18.1929 103.343 16.9663 102.133 16.9827 100.416ZM34.8091 95.9182H32.8139L32.7976 100.972C32.7976 102.738 31.8163 103.376 30.557 103.376C29.314 103.376 28.3328 102.722 28.3491 100.955V95.8855H26.3702V101.135C26.3375 104.03 28.4145 105.24 30.5406 105.24C32.6667 105.24 34.7601 104.063 34.7765 101.168V95.9182H34.8091ZM45.7013 99.3527C45.7013 97.2266 44.1803 95.722 42.0215 95.722C41.0893 95.722 39.9609 95.9836 39.2249 97.063V95.9509H37.246L37.2133 105.06H39.2085L39.2249 100.023C39.2249 98.4695 40.3043 97.6191 41.5963 97.6355C42.9211 97.6355 43.706 98.5023 43.706 100.023V105.093H45.685V99.369M68.1398 96.0818H66.1609V97.1775C65.5394 96.3598 64.5909 95.8365 63.2989 95.8201C60.7475 95.8201 58.7359 97.8154 58.7359 100.596C58.7359 103.376 60.7149 105.388 63.2662 105.404C64.5582 105.404 65.5067 104.897 66.1282 104.079V105.175H68.1071L68.1398 96.0654V96.0818ZM60.7639 100.596C60.7639 98.9929 61.8106 97.6845 63.5278 97.6845C65.1633 97.6845 66.259 98.9438 66.259 100.612C66.259 102.28 65.1469 103.523 63.4951 103.523C61.7779 103.523 60.7475 102.182 60.7639 100.596ZM92.8843 100.726C92.8843 97.9953 90.8073 95.9346 87.9943 95.9182C85.1813 95.9182 83.0879 97.9626 83.0879 100.694C83.0879 103.425 85.1486 105.486 87.9616 105.502C90.7745 105.502 92.8679 103.458 92.8843 100.726ZM85.1322 100.694C85.1322 98.9765 86.3752 97.7827 87.9943 97.7827C89.6134 97.7827 90.8563 98.9929 90.84 100.71C90.84 102.427 89.597 103.621 87.9616 103.621C86.3261 103.621 85.1159 102.411 85.1159 100.694M103.171 99.5817C103.171 97.4556 101.667 95.9509 99.4915 95.9509C98.5593 95.9509 97.4309 96.2126 96.6949 97.292V96.1799H94.716L94.6833 105.289H96.6786L96.6949 100.252C96.6949 98.6985 97.7744 97.8481 99.0664 97.8644C100.391 97.8644 101.176 98.7312 101.176 100.269V105.322H103.155V99.598M76.8078 96.0981H73.6022V93.3506H71.6233V96.0818H69.7916V97.8644H71.6233L71.607 101.986C71.607 104.079 72.4083 105.322 74.7307 105.338C75.5811 105.338 76.5624 105.077 77.1839 104.652L76.6278 102.967C76.0391 103.31 75.4012 103.474 74.8943 103.474C73.913 103.474 73.5859 102.869 73.6022 101.953V97.8808H76.8241V96.0818L76.8078 96.0981ZM56.8878 92.3693L56.8551 100.579V105.142H54.8599V104.03C54.2384 104.848 53.2735 105.355 51.9815 105.355C49.4301 105.355 47.4349 103.343 47.4513 100.547C47.4676 97.7499 49.4792 95.771 52.0305 95.7874C53.3225 95.7874 54.2711 96.3107 54.9089 97.1285V92.3693H56.9042H56.8878ZM52.2268 103.474C53.8623 103.474 54.9744 102.231 54.9744 100.579C54.9744 98.9275 53.8786 97.6518 52.2431 97.6518C50.5259 97.6518 49.4792 98.9602 49.4629 100.563C49.4629 102.166 50.4932 103.474 52.2105 103.49M81.2398 96.1308H79.2446L79.2119 105.24H81.2071L81.2398 96.1308ZM80.2422 91.7315C79.4408 91.7315 78.8521 92.3366 78.8521 93.138C78.8521 93.923 79.4408 94.5281 80.2422 94.5281C81.0272 94.5281 81.6487 93.923 81.6487 93.138C81.6487 92.3366 81.0272 91.7151 80.2422 91.7151M68.7122 81.5262C68.7122 84.2901 70.6257 86.3181 73.5532 86.3181C74.9269 86.3181 75.8428 86.0237 76.8405 85.2387L75.8919 83.6359C75.1395 84.1593 74.3709 84.4537 73.5041 84.4537C71.9177 84.4373 70.7729 83.2761 70.7729 81.5262C70.7729 79.7762 71.9504 78.6314 73.5205 78.6314C74.3709 78.6314 75.1559 78.9258 75.8919 79.4655L76.8568 77.8628C75.8755 77.0777 74.9597 76.767 73.5859 76.767C70.6584 76.767 68.7286 78.7623 68.7122 81.5262ZM87.2583 81.608V77.0614H85.2957V78.1571C84.6579 77.3394 83.7094 76.8161 82.4174 76.8161C79.8661 76.8161 77.8544 78.795 77.8544 81.5753C77.8544 84.3555 79.8333 86.3672 82.3846 86.3672C83.6766 86.3672 84.6252 85.8602 85.2631 85.0424V86.1545H87.242V81.608H87.2583ZM79.8988 81.5753C79.8988 79.9725 80.9618 78.6641 82.6627 78.6805C84.2981 78.6805 85.3939 79.9398 85.3939 81.608C85.3939 83.2598 84.2818 84.5191 82.6463 84.5191C80.9291 84.5191 79.8988 83.1944 79.8988 81.5916M56.021 76.7179C53.3553 76.7179 51.4908 78.6478 51.4745 81.4771C51.4745 84.3719 53.4043 86.269 56.1192 86.269C57.493 86.269 58.7523 85.9419 59.8644 85.0097L58.8995 83.5378C58.1308 84.1429 57.1659 84.4864 56.25 84.4864C54.9744 84.4864 53.8132 83.8813 53.5352 82.2458L60.2896 82.2785C60.306 82.0332 60.3387 81.7879 60.3387 81.5098C60.3387 78.6641 58.5887 76.7179 56.0374 76.7179M55.9884 78.4842C57.264 78.4842 58.0817 79.2856 58.278 80.7085H53.5515C53.7641 79.3837 54.5655 78.4842 55.972 78.4842M105.641 81.6897L105.674 73.4797H103.695L103.678 78.2389C103.057 77.4212 102.108 76.8979 100.816 76.8979C98.2649 76.8979 96.2533 78.8767 96.237 81.657C96.237 84.4373 98.2159 86.4489 100.767 86.4489C102.059 86.4489 103.008 85.9419 103.646 85.1242V86.2363H105.624V81.6897H105.641ZM98.2649 81.657C98.2649 80.0543 99.328 78.7459 101.045 78.7623C102.681 78.7623 103.776 80.0216 103.776 81.6897C103.776 83.3416 102.664 84.6009 101.029 84.6009C99.3116 84.6009 98.2813 83.2761 98.2813 81.6734M31.4074 81.4117V76.8651H29.4448V77.9609C28.8234 77.1432 27.8585 76.6198 26.5665 76.6198C24.0152 76.6198 22.0035 78.5987 22.0035 81.379C22.0035 84.1593 23.9824 86.1709 26.5337 86.1709C27.8257 86.1709 28.7907 85.6639 29.4122 84.8462V85.9583H31.391V81.4117H31.4074ZM24.0315 81.379C24.0315 79.7763 25.0946 78.4679 26.8118 78.4842C28.4472 78.4842 29.543 79.7435 29.543 81.4117C29.543 83.0635 28.4309 84.3228 26.7954 84.3228C25.0782 84.3228 24.0479 82.9981 24.0479 81.3954" fill="black"/>
<path d="M40.8277 7.48074L40.6113 61.385L70.6054 61.5054L70.8218 7.60115L40.8277 7.48074Z" fill="#F26522"/>
<path d="M42.6419 34.4575C42.691 23.5163 47.8427 13.8017 55.8401 7.55422C50.0342 2.94223 42.6746 0.178299 34.6936 0.14559C15.755 0.0638172 0.348948 15.3554 0.28353 34.294C0.201757 53.2162 15.4933 68.6386 34.4319 68.704C42.4293 68.7367 49.7889 66.0219 55.6438 61.4589C47.6955 55.1461 42.6092 45.3987 42.6583 34.4575" fill="#E51B24"/>
<path d="M107.847 55.9636V54.8515H108.289V54.6226H107.16V54.8515H107.602V55.9636H107.831H107.847ZM110.055 55.9636V54.6389H109.711L109.303 55.5548L108.91 54.6389H108.567V55.9636H108.812V54.966L109.188 55.8328H109.45L109.826 54.966V55.98H110.071L110.055 55.9636Z" fill="black"/>
<path d="M111.201 34.7353C111.119 53.6739 95.7133 68.9491 76.791 68.8837C68.7936 68.851 61.4504 66.087 55.6445 61.475C63.6419 55.2276 68.7936 45.513 68.8426 34.5718C68.8917 23.6305 63.8054 13.8832 55.8571 7.57033C61.6957 3.0074 69.0716 0.292534 77.069 0.325243C96.0076 0.407016 111.283 15.813 111.201 34.7353Z" fill="#F99F1C"/>
</g>
</svg>
